<svg xmlns="http://www.w3.org/2000/svg" xmlns:xlink="http://www.w3.org/1999/xlink" width="500" zoomAndPan="magnify" viewBox="0 0 375 374.999991" height="500" preserveAspectRatio="xMidYMid meet" version="1.0"><defs><g/><clipPath id="8dfb36a893"><path d="M 7.300781 172.480469 L 282.269531 172.480469 L 282.269531 323.980469 L 7.300781 323.980469 Z M 7.300781 172.480469 " clip-rule="nonzero"/></clipPath><clipPath id="18ecd92041"><path d="M 295 59.898438 L 305 59.898438 L 305 73 L 295 73 Z M 295 59.898438 " clip-rule="nonzero"/></clipPath><clipPath id="faa275e266"><path d="M 273.285156 76 L 276 76 L 276 81 L 273.285156 81 Z M 273.285156 76 " clip-rule="nonzero"/></clipPath><clipPath id="8f608ee4f3"><path d="M 309 95 L 336 95 L 336 147.648438 L 309 147.648438 Z M 309 95 " clip-rule="nonzero"/></clipPath></defs><g fill="#ec4899" fill-opacity="1"><g transform="translate(193.389623, 285.449115)"><g><path d="M 63.203125 0 L 6.796875 0 L 6.796875 -2.9375 C 12.234375 -2.9375 16.195312 -3.691406 18.6875 -5.203125 C 21.175781 -6.710938 22.421875 -10.035156 22.421875 -15.171875 L 22.421875 -149.96875 C 22.421875 -155.25 21.175781 -158.609375 18.6875 -160.046875 C 16.195312 -161.484375 12.234375 -162.203125 6.796875 -162.203125 L 6.796875 -165.140625 L 116.890625 -165.140625 L 128.890625 -129.125 L 125.953125 -129.125 C 122.023438 -139.394531 117.566406 -146.832031 112.578125 -151.4375 C 107.597656 -156.039062 101.972656 -158.945312 95.703125 -160.15625 C 89.441406 -161.363281 82.304688 -162.046875 74.296875 -162.203125 L 47.578125 -162.203125 L 47.578125 -88.125 L 73.84375 -88.125 C 81.550781 -88.269531 87.253906 -89.4375 90.953125 -91.625 C 94.648438 -93.820312 97.066406 -97.445312 98.203125 -102.5 C 99.335938 -107.5625 99.90625 -114.320312 99.90625 -122.78125 L 102.84375 -122.78125 L 102.84375 -47.796875 L 99.90625 -47.796875 C 99.90625 -57.304688 99.335938 -64.78125 98.203125 -70.21875 C 97.066406 -75.65625 94.648438 -79.503906 90.953125 -81.765625 C 87.253906 -84.035156 81.550781 -85.171875 73.84375 -85.171875 L 47.578125 -85.171875 L 47.578125 -14.71875 C 47.578125 -9.582031 48.859375 -6.296875 51.421875 -4.859375 C 53.992188 -3.429688 57.921875 -2.71875 63.203125 -2.71875 Z M 63.203125 0 "/></g></g></g><g fill="#ec4899" fill-opacity="1"><g transform="translate(44.488372, 191.614562)"><g><path d="M 6.265625 0 L 6.265625 -2.71875 C 11.273438 -2.71875 14.925781 -3.375 17.21875 -4.6875 C 19.519531 -6.007812 20.671875 -9.109375 20.671875 -13.984375 L 20.671875 -138.1875 C 20.671875 -143.050781 19.519531 -146.144531 17.21875 -147.46875 C 14.925781 -148.789062 11.273438 -149.453125 6.265625 -149.453125 L 6.265625 -152.171875 L 74.3125 -152.171875 C 79.875 -152.171875 86.132812 -151.71875 93.09375 -150.8125 C 100.050781 -149.90625 107.039062 -148.09375 114.0625 -145.375 C 121.09375 -142.664062 127.597656 -138.597656 133.578125 -133.171875 C 139.566406 -127.742188 144.367188 -120.578125 147.984375 -111.671875 C 151.609375 -102.765625 153.421875 -91.5625 153.421875 -78.0625 C 153.421875 -67.90625 151.992188 -58.128906 149.140625 -48.734375 C 146.285156 -39.347656 141.585938 -31 135.046875 -23.6875 C 128.503906 -16.382812 119.804688 -10.609375 108.953125 -6.359375 C 98.097656 -2.117188 84.738281 0 68.875 0 Z M 67 -2.71875 C 80.082031 -2.71875 90.796875 -4.941406 99.140625 -9.390625 C 107.492188 -13.847656 113.96875 -19.796875 118.5625 -27.234375 C 123.15625 -34.679688 126.320312 -42.820312 128.0625 -51.65625 C 129.800781 -60.5 130.671875 -69.300781 130.671875 -78.0625 C 130.671875 -93.925781 128.0625 -107.144531 122.84375 -117.71875 C 117.625 -128.300781 110.488281 -136.234375 101.4375 -141.515625 C 92.394531 -146.804688 82.097656 -149.453125 70.546875 -149.453125 C 60.804688 -149.453125 53.882812 -148.789062 49.78125 -147.46875 C 45.675781 -146.144531 43.625 -143.117188 43.625 -138.390625 L 43.625 -13.984375 C 43.625 -9.253906 45.394531 -6.191406 48.9375 -4.796875 C 52.488281 -3.410156 58.507812 -2.71875 67 -2.71875 Z M 67 -2.71875 "/></g></g></g><g clip-path="url(#8dfb36a893)"><path fill="#ec4899" d="M 234.460938 255.894531 C 236.136719 256.382812 237.863281 256.757812 239.621094 257.007812 C 241.355469 257.253906 243.121094 257.378906 244.90625 257.378906 C 255.203125 257.378906 264.53125 253.207031 271.28125 246.453125 C 278.03125 239.703125 282.207031 230.378906 282.207031 220.078125 C 282.207031 209.777344 278.03125 200.449219 271.28125 193.699219 C 264.53125 186.949219 255.203125 182.777344 244.90625 182.777344 C 239.179688 182.777344 233.753906 184.070312 228.898438 186.375 C 223.863281 188.773438 219.445312 192.265625 215.960938 196.550781 C 205.40625 209.339844 196.804688 222.761719 188.214844 236.171875 C 170.511719 263.808594 152.828125 291.402344 118.273438 312.960938 C 115.117188 314.683594 111.820312 316.179688 108.402344 317.429688 C 100.492188 320.332031 91.941406 321.914062 83.019531 321.914062 C 62.644531 321.914062 44.203125 313.65625 30.851562 300.308594 C 17.5 286.957031 9.246094 268.511719 9.246094 248.140625 C 9.246094 227.769531 17.503906 209.324219 30.851562 195.976562 C 43.480469 183.347656 60.664062 175.277344 79.730469 174.441406 C 78.230469 175.523438 77.253906 177.289062 77.253906 179.28125 C 77.253906 182.582031 79.925781 185.257812 83.226562 185.257812 C 86.527344 185.257812 89.199219 182.582031 89.199219 179.28125 C 89.199219 176.410156 87.171875 174.011719 84.472656 173.441406 L 84.488281 172.503906 L 83.023438 172.484375 C 62.132812 172.484375 43.214844 180.953125 29.523438 194.644531 C 15.832031 208.335938 7.363281 227.25 7.363281 248.144531 C 7.363281 269.035156 15.832031 287.949219 29.523438 301.640625 C 43.214844 315.332031 62.128906 323.800781 83.023438 323.800781 C 92.164062 323.800781 100.933594 322.175781 109.054688 319.203125 C 117.46875 316.117188 125.183594 311.582031 131.894531 305.898438 C 158.75 285.652344 174.265625 261.4375 189.800781 237.195312 C 198.371094 223.820312 206.945312 210.433594 217.414062 197.746094 L 216.691406 197.148438 L 217.417969 197.742188 C 220.726562 193.675781 224.921875 190.359375 229.707031 188.082031 C 234.308594 185.894531 239.464844 184.664062 244.910156 184.664062 C 254.691406 184.664062 263.546875 188.628906 269.957031 195.039062 C 276.367188 201.449219 280.332031 210.304688 280.332031 220.085938 C 280.332031 229.867188 276.367188 238.722656 269.957031 245.132812 C 263.546875 251.542969 254.691406 255.507812 244.910156 255.507812 C 243.191406 255.507812 241.515625 255.386719 239.882812 255.15625 C 238.207031 254.917969 236.570312 254.5625 234.988281 254.101562 L 234.46875 255.90625 Z M 234.460938 255.894531 " fill-opacity="1" fill-rule="nonzero"/></g><g clip-path="url(#18ecd92041)"><path fill="#ec4899" d="M 299.886719 59.898438 L 300.5625 59.898438 C 306.046875 61.773438 305.464844 70.929688 299.988281 72.542969 C 299.050781 72.632812 297.960938 72.285156 297.324219 71.546875 C 293.414062 68.324219 295.503906 61.378906 299.886719 59.898438 Z M 299.886719 59.898438 " fill-opacity="1" fill-rule="nonzero"/></g><path fill="#ec4899" d="M 290.980469 63.210938 C 294.253906 64.03125 293.359375 70.296875 290.050781 70.480469 C 286.996094 69.113281 288.046875 64.273438 290.980469 63.210938 Z M 290.980469 63.210938 " fill-opacity="1" fill-rule="nonzero"/><path fill="#ec4899" d="M 284.210938 66.125 C 286.703125 66.085938 286.898438 69.941406 285.320312 71.339844 C 284.902344 72.75 282.285156 72.46875 282.535156 70.765625 C 281.554688 69.289062 282.917969 67.160156 284.210938 66.125 Z M 284.210938 66.125 " fill-opacity="1" fill-rule="nonzero"/><path fill="#ec4899" d="M 278.617188 70.9375 C 281.585938 71.347656 280.351562 76.628906 277.664062 76.582031 C 275.984375 75.128906 276.574219 71.796875 278.617188 70.9375 Z M 278.617188 70.9375 " fill-opacity="1" fill-rule="nonzero"/><path fill="#ec4899" d="M 289.941406 73.574219 C 296.136719 72.570312 302.4375 77.496094 303.4375 83.578125 C 302.820312 89.363281 297.078125 93.289062 295.992188 98.886719 C 294.886719 105.101562 299.023438 110.109375 300.761719 115.691406 C 301.929688 118.628906 301.882812 123.140625 298.464844 124.617188 C 296.382812 126.714844 292.734375 126.101562 291.144531 123.621094 C 287.902344 119.066406 288.519531 113.390625 286.265625 108.425781 C 283.601562 102.148438 279.402344 96.460938 277.957031 89.707031 C 276.171875 84.78125 279.160156 79.191406 283.507812 76.464844 C 285.503906 75.191406 287.648438 74.300781 289.941406 73.574219 Z M 289.941406 73.574219 " fill-opacity="1" fill-rule="nonzero"/><g clip-path="url(#faa275e266)"><path fill="#ec4899" d="M 273.285156 78.253906 C 273.601562 77.546875 273.980469 76.472656 275.019531 76.941406 C 276.925781 77.878906 274.609375 82.707031 273.285156 79.878906 Z M 273.285156 78.253906 " fill-opacity="1" fill-rule="nonzero"/></g><path fill="#ec4899" d="M 312.039062 82.085938 C 317.972656 81.980469 319.632812 91.664062 314.519531 94.246094 C 311.753906 95 309.082031 92.222656 308.84375 89.578125 C 307.773438 87.101562 308.933594 82.855469 312.039062 82.085938 Z M 312.039062 82.085938 " fill-opacity="1" fill-rule="nonzero"/><path fill="#ec4899" d="M 321.589844 85.191406 C 324.757812 85.375 326.019531 91.84375 322.289062 92.351562 C 319.746094 91.296875 318.648438 86.363281 321.589844 85.191406 Z M 321.589844 85.191406 " fill-opacity="1" fill-rule="nonzero"/><path fill="#ec4899" d="M 327.804688 88.222656 C 330.765625 88.027344 331.863281 93.582031 328.769531 94.367188 C 326.8125 93.175781 325.539062 89.730469 327.804688 88.222656 Z M 327.804688 88.222656 " fill-opacity="1" fill-rule="nonzero"/><path fill="#ec4899" d="M 333.667969 92.867188 C 336.3125 92.664062 337.082031 97.175781 335 98.488281 C 332.566406 98.238281 331.671875 94.230469 333.667969 92.867188 Z M 333.667969 92.867188 " fill-opacity="1" fill-rule="nonzero"/><g clip-path="url(#8f608ee4f3)"><path fill="#ec4899" d="M 314.171875 97.695312 C 322.339844 91.640625 335.863281 99.207031 335.402344 109.28125 C 334.144531 117.398438 329.105469 124.203125 326.046875 131.6875 C 324.933594 135.34375 324.429688 139.132812 323.238281 142.765625 C 322.25 145.042969 320.46875 147.574219 317.796875 147.824219 L 317.515625 147.824219 C 313.433594 147.199219 309.886719 142.753906 311.875 138.625 C 313.164062 133.054688 317.511719 128.335938 316.878906 122.339844 C 317.007812 116.402344 311.515625 112.582031 309.761719 107.296875 C 309.183594 103.613281 311.292969 99.902344 314.171875 97.695312 Z M 314.171875 97.695312 " fill-opacity="1" fill-rule="nonzero"/></g><path fill="#ec4899" d="M 339.730469 101.972656 C 337.996094 104.207031 335.996094 99.589844 338.132812 98.753906 C 339.054688 98.8125 339.179688 99.710938 339.730469 100.207031 Z M 339.730469 101.972656 " fill-opacity="1" fill-rule="nonzero"/></svg>